<svg xmlns="http://www.w3.org/2000/svg" width="953" height="7062" viewBox="0 0 953 7062"><style>text{font-family:Arial,Helvetica,sans-serif;fill:#1f2937}.root{font-size:16px;font-weight:700}.lvl1{font-size:13px;font-weight:700}.lvlx{font-size:11px}.edge{fill:none;stroke:#9ca3af;stroke-width:1.2}.box{stroke:#94a3b8;stroke-width:1;rx:8;ry:8}.green{fill:#d9ead3;stroke:#5b8a3c;stroke-width:1.4}.normal{fill:#ffffff}.rootbox{fill:#e8f0fe;stroke:#5f6368;stroke-width:1.6}</style><rect width="100%" height="100%" fill="#fbfbfd"/><path class="edge" d="M 300.0,3561.9 C 335.0,3561.9 335.0,178.0 370.0,178.0"/><path class="edge" d="M 300.0,3561.9 C 335.0,3561.9 335.0,660.0 370.0,660.0"/><path class="edge" d="M 300.0,3561.9 C 335.0,3561.9 335.0,1371.7 370.0,1371.7"/><path class="edge" d="M 300.0,3561.9 C 335.0,3561.9 335.0,1808.0 370.0,1808.0"/><path class="edge" d="M 300.0,3561.9 C 335.0,3561.9 335.0,2012.0 370.0,2012.0"/><path class="edge" d="M 300.0,3561.9 C 335.0,3561.9 335.0,2204.0 370.0,2204.0"/><path class="edge" d="M 300.0,3561.9 C 335.0,3561.9 335.0,3063.6 370.0,3063.6"/><path class="edge" d="M 300.0,3561.9 C 335.0,3561.9 335.0,3886.0 370.0,3886.0"/><path class="edge" d="M 300.0,3561.9 C 335.0,3561.9 335.0,3966.0 370.0,3966.0"/><path class="edge" d="M 300.0,3561.9 C 335.0,3561.9 335.0,4056.0 370.0,4056.0"/><path class="edge" d="M 300.0,3561.9 C 335.0,3561.9 335.0,4136.7 370.0,4136.7"/><path class="edge" d="M 300.0,3561.9 C 335.0,3561.9 335.0,4358.0 370.0,4358.0"/><path class="edge" d="M 300.0,3561.9 C 335.0,3561.9 335.0,4795.1 370.0,4795.1"/><path class="edge" d="M 300.0,3561.9 C 335.0,3561.9 335.0,5119.0 370.0,5119.0"/><path class="edge" d="M 300.0,3561.9 C 335.0,3561.9 335.0,5608.1 370.0,5608.1"/><path class="edge" d="M 300.0,3561.9 C 335.0,3561.9 335.0,6417.4 370.0,6417.4"/><path class="edge" d="M 300.0,3561.9 C 335.0,3561.9 335.0,6913.0 370.0,6913.0"/><path class="edge" d="M 531.0,178.0 C 610.0,178.0 610.0,62.0 689.0,62.0"/><path class="edge" d="M 531.0,178.0 C 610.0,178.0 610.0,100.0 689.0,100.0"/><path class="edge" d="M 531.0,178.0 C 610.0,178.0 610.0,138.0 689.0,138.0"/><path class="edge" d="M 531.0,178.0 C 610.0,178.0 610.0,176.0 689.0,176.0"/><path class="edge" d="M 531.0,178.0 C 610.0,178.0 610.0,214.0 689.0,214.0"/><path class="edge" d="M 531.0,178.0 C 610.0,178.0 610.0,252.0 689.0,252.0"/><path class="edge" d="M 531.0,178.0 C 610.0,178.0 610.0,304.0 689.0,304.0"/><path class="edge" d="M 579.0,660.0 C 634.0,660.0 634.0,342.0 689.0,342.0"/><path class="edge" d="M 579.0,660.0 C 634.0,660.0 634.0,394.0 689.0,394.0"/><path class="edge" d="M 579.0,660.0 C 634.0,660.0 634.0,432.0 689.0,432.0"/><path class="edge" d="M 579.0,660.0 C 634.0,660.0 634.0,470.0 689.0,470.0"/><path class="edge" d="M 579.0,660.0 C 634.0,660.0 634.0,508.0 689.0,508.0"/><path class="edge" d="M 579.0,660.0 C 634.0,660.0 634.0,546.0 689.0,546.0"/><path class="edge" d="M 579.0,660.0 C 634.0,660.0 634.0,584.0 689.0,584.0"/><path class="edge" d="M 579.0,660.0 C 634.0,660.0 634.0,622.0 689.0,622.0"/><path class="edge" d="M 579.0,660.0 C 634.0,660.0 634.0,660.0 689.0,660.0"/><path class="edge" d="M 579.0,660.0 C 634.0,660.0 634.0,698.0 689.0,698.0"/><path class="edge" d="M 579.0,660.0 C 634.0,660.0 634.0,736.0 689.0,736.0"/><path class="edge" d="M 579.0,660.0 C 634.0,660.0 634.0,774.0 689.0,774.0"/><path class="edge" d="M 579.0,660.0 C 634.0,660.0 634.0,812.0 689.0,812.0"/><path class="edge" d="M 579.0,660.0 C 634.0,660.0 634.0,850.0 689.0,850.0"/><path class="edge" d="M 579.0,660.0 C 634.0,660.0 634.0,888.0 689.0,888.0"/><path class="edge" d="M 579.0,660.0 C 634.0,660.0 634.0,926.0 689.0,926.0"/><path class="edge" d="M 579.0,660.0 C 634.0,660.0 634.0,978.0 689.0,978.0"/><path class="edge" d="M 547.0,1371.7 C 618.0,1371.7 618.0,1016.0 689.0,1016.0"/><path class="edge" d="M 547.0,1371.7 C 618.0,1371.7 618.0,1054.0 689.0,1054.0"/><path class="edge" d="M 547.0,1371.7 C 618.0,1371.7 618.0,1092.0 689.0,1092.0"/><path class="edge" d="M 547.0,1371.7 C 618.0,1371.7 618.0,1130.0 689.0,1130.0"/><path class="edge" d="M 547.0,1371.7 C 618.0,1371.7 618.0,1182.0 689.0,1182.0"/><path class="edge" d="M 547.0,1371.7 C 618.0,1371.7 618.0,1220.0 689.0,1220.0"/><path class="edge" d="M 547.0,1371.7 C 618.0,1371.7 618.0,1272.0 689.0,1272.0"/><path class="edge" d="M 547.0,1371.7 C 618.0,1371.7 618.0,1310.0 689.0,1310.0"/><path class="edge" d="M 547.0,1371.7 C 618.0,1371.7 618.0,1362.0 689.0,1362.0"/><path class="edge" d="M 547.0,1371.7 C 618.0,1371.7 618.0,1400.0 689.0,1400.0"/><path class="edge" d="M 547.0,1371.7 C 618.0,1371.7 618.0,1438.0 689.0,1438.0"/><path class="edge" d="M 547.0,1371.7 C 618.0,1371.7 618.0,1476.0 689.0,1476.0"/><path class="edge" d="M 547.0,1371.7 C 618.0,1371.7 618.0,1514.0 689.0,1514.0"/><path class="edge" d="M 547.0,1371.7 C 618.0,1371.7 618.0,1552.0 689.0,1552.0"/><path class="edge" d="M 547.0,1371.7 C 618.0,1371.7 618.0,1604.0 689.0,1604.0"/><path class="edge" d="M 547.0,1371.7 C 618.0,1371.7 618.0,1642.0 689.0,1642.0"/><path class="edge" d="M 547.0,1371.7 C 618.0,1371.7 618.0,1694.0 689.0,1694.0"/><path class="edge" d="M 547.0,1371.7 C 618.0,1371.7 618.0,1732.0 689.0,1732.0"/><path class="edge" d="M 506.0,1808.0 C 597.5,1808.0 597.5,1770.0 689.0,1770.0"/><path class="edge" d="M 506.0,1808.0 C 597.5,1808.0 597.5,1808.0 689.0,1808.0"/><path class="edge" d="M 506.0,1808.0 C 597.5,1808.0 597.5,1846.0 689.0,1846.0"/><path class="edge" d="M 555.0,2012.0 C 622.0,2012.0 622.0,1884.0 689.0,1884.0"/><path class="edge" d="M 555.0,2012.0 C 622.0,2012.0 622.0,1936.0 689.0,1936.0"/><path class="edge" d="M 555.0,2012.0 C 622.0,2012.0 622.0,1974.0 689.0,1974.0"/><path class="edge" d="M 555.0,2012.0 C 622.0,2012.0 622.0,2012.0 689.0,2012.0"/><path class="edge" d="M 555.0,2012.0 C 622.0,2012.0 622.0,2050.0 689.0,2050.0"/><path class="edge" d="M 555.0,2012.0 C 622.0,2012.0 622.0,2088.0 689.0,2088.0"/><path class="edge" d="M 555.0,2012.0 C 622.0,2012.0 622.0,2140.0 689.0,2140.0"/><path class="edge" d="M 587.0,2204.0 C 638.0,2204.0 638.0,2178.0 689.0,2178.0"/><path class="edge" d="M 587.0,2204.0 C 638.0,2204.0 638.0,2230.0 689.0,2230.0"/><path class="edge" d="M 603.0,3063.6 C 646.0,3063.6 646.0,2282.0 689.0,2282.0"/><path class="edge" d="M 603.0,3063.6 C 646.0,3063.6 646.0,2320.0 689.0,2320.0"/><path class="edge" d="M 603.0,3063.6 C 646.0,3063.6 646.0,2358.0 689.0,2358.0"/><path class="edge" d="M 603.0,3063.6 C 646.0,3063.6 646.0,2396.0 689.0,2396.0"/><path class="edge" d="M 603.0,3063.6 C 646.0,3063.6 646.0,2434.0 689.0,2434.0"/><path class="edge" d="M 603.0,3063.6 C 646.0,3063.6 646.0,2472.0 689.0,2472.0"/><path class="edge" d="M 603.0,3063.6 C 646.0,3063.6 646.0,2510.0 689.0,2510.0"/><path class="edge" d="M 603.0,3063.6 C 646.0,3063.6 646.0,2548.0 689.0,2548.0"/><path class="edge" d="M 603.0,3063.6 C 646.0,3063.6 646.0,2586.0 689.0,2586.0"/><path class="edge" d="M 603.0,3063.6 C 646.0,3063.6 646.0,2624.0 689.0,2624.0"/><path class="edge" d="M 603.0,3063.6 C 646.0,3063.6 646.0,2662.0 689.0,2662.0"/><path class="edge" d="M 603.0,3063.6 C 646.0,3063.6 646.0,2714.0 689.0,2714.0"/><path class="edge" d="M 603.0,3063.6 C 646.0,3063.6 646.0,2752.0 689.0,2752.0"/><path class="edge" d="M 603.0,3063.6 C 646.0,3063.6 646.0,2790.0 689.0,2790.0"/><path class="edge" d="M 603.0,3063.6 C 646.0,3063.6 646.0,2828.0 689.0,2828.0"/><path class="edge" d="M 603.0,3063.6 C 646.0,3063.6 646.0,2880.0 689.0,2880.0"/><path class="edge" d="M 603.0,3063.6 C 646.0,3063.6 646.0,2918.0 689.0,2918.0"/><path class="edge" d="M 603.0,3063.6 C 646.0,3063.6 646.0,2956.0 689.0,2956.0"/><path class="edge" d="M 603.0,3063.6 C 646.0,3063.6 646.0,2994.0 689.0,2994.0"/><path class="edge" d="M 603.0,3063.6 C 646.0,3063.6 646.0,3032.0 689.0,3032.0"/><path class="edge" d="M 603.0,3063.6 C 646.0,3063.6 646.0,3070.0 689.0,3070.0"/><path class="edge" d="M 603.0,3063.6 C 646.0,3063.6 646.0,3108.0 689.0,3108.0"/><path class="edge" d="M 603.0,3063.6 C 646.0,3063.6 646.0,3146.0 689.0,3146.0"/><path class="edge" d="M 603.0,3063.6 C 646.0,3063.6 646.0,3198.0 689.0,3198.0"/><path class="edge" d="M 603.0,3063.6 C 646.0,3063.6 646.0,3250.0 689.0,3250.0"/><path class="edge" d="M 603.0,3063.6 C 646.0,3063.6 646.0,3302.0 689.0,3302.0"/><path class="edge" d="M 603.0,3063.6 C 646.0,3063.6 646.0,3354.0 689.0,3354.0"/><path class="edge" d="M 603.0,3063.6 C 646.0,3063.6 646.0,3392.0 689.0,3392.0"/><path class="edge" d="M 603.0,3063.6 C 646.0,3063.6 646.0,3430.0 689.0,3430.0"/><path class="edge" d="M 603.0,3063.6 C 646.0,3063.6 646.0,3468.0 689.0,3468.0"/><path class="edge" d="M 603.0,3063.6 C 646.0,3063.6 646.0,3506.0 689.0,3506.0"/><path class="edge" d="M 603.0,3063.6 C 646.0,3063.6 646.0,3544.0 689.0,3544.0"/><path class="edge" d="M 603.0,3063.6 C 646.0,3063.6 646.0,3582.0 689.0,3582.0"/><path class="edge" d="M 603.0,3063.6 C 646.0,3063.6 646.0,3620.0 689.0,3620.0"/><path class="edge" d="M 603.0,3063.6 C 646.0,3063.6 646.0,3658.0 689.0,3658.0"/><path class="edge" d="M 603.0,3063.6 C 646.0,3063.6 646.0,3696.0 689.0,3696.0"/><path class="edge" d="M 603.0,3063.6 C 646.0,3063.6 646.0,3734.0 689.0,3734.0"/><path class="edge" d="M 603.0,3063.6 C 646.0,3063.6 646.0,3772.0 689.0,3772.0"/><path class="edge" d="M 603.0,3063.6 C 646.0,3063.6 646.0,3810.0 689.0,3810.0"/><path class="edge" d="M 603.0,3063.6 C 646.0,3063.6 646.0,3848.0 689.0,3848.0"/><path class="edge" d="M 522.0,3966.0 C 605.5,3966.0 605.5,3928.0 689.0,3928.0"/><path class="edge" d="M 522.0,3966.0 C 605.5,3966.0 605.5,3966.0 689.0,3966.0"/><path class="edge" d="M 522.0,3966.0 C 605.5,3966.0 605.5,4004.0 689.0,4004.0"/><path class="edge" d="M 547.0,4056.0 C 618.0,4056.0 618.0,4056.0 689.0,4056.0"/><path class="edge" d="M 619.0,4136.7 C 654.0,4136.7 654.0,4094.0 689.0,4094.0"/><path class="edge" d="M 619.0,4136.7 C 654.0,4136.7 654.0,4132.0 689.0,4132.0"/><path class="edge" d="M 619.0,4136.7 C 654.0,4136.7 654.0,4184.0 689.0,4184.0"/><path class="edge" d="M 539.0,4358.0 C 614.0,4358.0 614.0,4236.0 689.0,4236.0"/><path class="edge" d="M 539.0,4358.0 C 614.0,4358.0 614.0,4274.0 689.0,4274.0"/><path class="edge" d="M 539.0,4358.0 C 614.0,4358.0 614.0,4312.0 689.0,4312.0"/><path class="edge" d="M 539.0,4358.0 C 614.0,4358.0 614.0,4364.0 689.0,4364.0"/><path class="edge" d="M 539.0,4358.0 C 614.0,4358.0 614.0,4402.0 689.0,4402.0"/><path class="edge" d="M 539.0,4358.0 C 614.0,4358.0 614.0,4440.0 689.0,4440.0"/><path class="edge" d="M 539.0,4358.0 C 614.0,4358.0 614.0,4478.0 689.0,4478.0"/><path class="edge" d="M 531.0,4795.1 C 610.0,4795.1 610.0,4516.0 689.0,4516.0"/><path class="edge" d="M 531.0,4795.1 C 610.0,4795.1 610.0,4568.0 689.0,4568.0"/><path class="edge" d="M 531.0,4795.1 C 610.0,4795.1 610.0,4606.0 689.0,4606.0"/><path class="edge" d="M 531.0,4795.1 C 610.0,4795.1 610.0,4644.0 689.0,4644.0"/><path class="edge" d="M 531.0,4795.1 C 610.0,4795.1 610.0,4682.0 689.0,4682.0"/><path class="edge" d="M 531.0,4795.1 C 610.0,4795.1 610.0,4720.0 689.0,4720.0"/><path class="edge" d="M 531.0,4795.1 C 610.0,4795.1 610.0,4758.0 689.0,4758.0"/><path class="edge" d="M 531.0,4795.1 C 610.0,4795.1 610.0,4796.0 689.0,4796.0"/><path class="edge" d="M 531.0,4795.1 C 610.0,4795.1 610.0,4834.0 689.0,4834.0"/><path class="edge" d="M 531.0,4795.1 C 610.0,4795.1 610.0,4872.0 689.0,4872.0"/><path class="edge" d="M 531.0,4795.1 C 610.0,4795.1 610.0,4910.0 689.0,4910.0"/><path class="edge" d="M 531.0,4795.1 C 610.0,4795.1 610.0,4948.0 689.0,4948.0"/><path class="edge" d="M 531.0,4795.1 C 610.0,4795.1 610.0,4986.0 689.0,4986.0"/><path class="edge" d="M 531.0,4795.1 C 610.0,4795.1 610.0,5024.0 689.0,5024.0"/><path class="edge" d="M 531.0,4795.1 C 610.0,4795.1 610.0,5062.0 689.0,5062.0"/><path class="edge" d="M 547.0,5119.0 C 618.0,5119.0 618.0,5100.0 689.0,5100.0"/><path class="edge" d="M 547.0,5119.0 C 618.0,5119.0 618.0,5138.0 689.0,5138.0"/><path class="edge" d="M 563.0,5608.1 C 626.0,5608.1 626.0,5176.0 689.0,5176.0"/><path class="edge" d="M 563.0,5608.1 C 626.0,5608.1 626.0,5228.0 689.0,5228.0"/><path class="edge" d="M 563.0,5608.1 C 626.0,5608.1 626.0,5266.0 689.0,5266.0"/><path class="edge" d="M 563.0,5608.1 C 626.0,5608.1 626.0,5304.0 689.0,5304.0"/><path class="edge" d="M 563.0,5608.1 C 626.0,5608.1 626.0,5342.0 689.0,5342.0"/><path class="edge" d="M 563.0,5608.1 C 626.0,5608.1 626.0,5380.0 689.0,5380.0"/><path class="edge" d="M 563.0,5608.1 C 626.0,5608.1 626.0,5432.0 689.0,5432.0"/><path class="edge" d="M 563.0,5608.1 C 626.0,5608.1 626.0,5484.0 689.0,5484.0"/><path class="edge" d="M 563.0,5608.1 C 626.0,5608.1 626.0,5522.0 689.0,5522.0"/><path class="edge" d="M 563.0,5608.1 C 626.0,5608.1 626.0,5560.0 689.0,5560.0"/><path class="edge" d="M 563.0,5608.1 C 626.0,5608.1 626.0,5598.0 689.0,5598.0"/><path class="edge" d="M 563.0,5608.1 C 626.0,5608.1 626.0,5636.0 689.0,5636.0"/><path class="edge" d="M 563.0,5608.1 C 626.0,5608.1 626.0,5674.0 689.0,5674.0"/><path class="edge" d="M 563.0,5608.1 C 626.0,5608.1 626.0,5712.0 689.0,5712.0"/><path class="edge" d="M 563.0,5608.1 C 626.0,5608.1 626.0,5750.0 689.0,5750.0"/><path class="edge" d="M 563.0,5608.1 C 626.0,5608.1 626.0,5788.0 689.0,5788.0"/><path class="edge" d="M 563.0,5608.1 C 626.0,5608.1 626.0,5826.0 689.0,5826.0"/><path class="edge" d="M 563.0,5608.1 C 626.0,5608.1 626.0,5864.0 689.0,5864.0"/><path class="edge" d="M 563.0,5608.1 C 626.0,5608.1 626.0,5902.0 689.0,5902.0"/><path class="edge" d="M 563.0,5608.1 C 626.0,5608.1 626.0,5940.0 689.0,5940.0"/><path class="edge" d="M 563.0,5608.1 C 626.0,5608.1 626.0,5978.0 689.0,5978.0"/><path class="edge" d="M 563.0,5608.1 C 626.0,5608.1 626.0,6016.0 689.0,6016.0"/><path class="edge" d="M 482.0,6417.4 C 585.5,6417.4 585.5,6054.0 689.0,6054.0"/><path class="edge" d="M 482.0,6417.4 C 585.5,6417.4 585.5,6092.0 689.0,6092.0"/><path class="edge" d="M 482.0,6417.4 C 585.5,6417.4 585.5,6130.0 689.0,6130.0"/><path class="edge" d="M 482.0,6417.4 C 585.5,6417.4 585.5,6182.0 689.0,6182.0"/><path class="edge" d="M 482.0,6417.4 C 585.5,6417.4 585.5,6220.0 689.0,6220.0"/><path class="edge" d="M 482.0,6417.4 C 585.5,6417.4 585.5,6258.0 689.0,6258.0"/><path class="edge" d="M 482.0,6417.4 C 585.5,6417.4 585.5,6296.0 689.0,6296.0"/><path class="edge" d="M 482.0,6417.4 C 585.5,6417.4 585.5,6334.0 689.0,6334.0"/><path class="edge" d="M 482.0,6417.4 C 585.5,6417.4 585.5,6386.0 689.0,6386.0"/><path class="edge" d="M 482.0,6417.4 C 585.5,6417.4 585.5,6424.0 689.0,6424.0"/><path class="edge" d="M 482.0,6417.4 C 585.5,6417.4 585.5,6462.0 689.0,6462.0"/><path class="edge" d="M 482.0,6417.4 C 585.5,6417.4 585.5,6500.0 689.0,6500.0"/><path class="edge" d="M 482.0,6417.4 C 585.5,6417.4 585.5,6538.0 689.0,6538.0"/><path class="edge" d="M 482.0,6417.4 C 585.5,6417.4 585.5,6576.0 689.0,6576.0"/><path class="edge" d="M 482.0,6417.4 C 585.5,6417.4 585.5,6614.0 689.0,6614.0"/><path class="edge" d="M 482.0,6417.4 C 585.5,6417.4 585.5,6652.0 689.0,6652.0"/><path class="edge" d="M 482.0,6417.4 C 585.5,6417.4 585.5,6690.0 689.0,6690.0"/><path class="edge" d="M 482.0,6417.4 C 585.5,6417.4 585.5,6742.0 689.0,6742.0"/><path class="edge" d="M 482.0,6417.4 C 585.5,6417.4 585.5,6780.0 689.0,6780.0"/><path class="edge" d="M 619.0,6913.0 C 654.0,6913.0 654.0,6818.0 689.0,6818.0"/><path class="edge" d="M 619.0,6913.0 C 654.0,6913.0 654.0,6856.0 689.0,6856.0"/><path class="edge" d="M 619.0,6913.0 C 654.0,6913.0 654.0,6894.0 689.0,6894.0"/><path class="edge" d="M 619.0,6913.0 C 654.0,6913.0 654.0,6932.0 689.0,6932.0"/><path class="edge" d="M 619.0,6913.0 C 654.0,6913.0 654.0,6970.0 689.0,6970.0"/><path class="edge" d="M 619.0,6913.0 C 654.0,6913.0 654.0,7008.0 689.0,7008.0"/><rect class="rootbox" x="30.0" y="3529.9" width="270" height="64" rx="8" ry="8"/><text class="root" x="40.0" y="3555.9">4. Анализы (Лабораторная</text><text class="root" x="40.0" y="3575.9">диагностика)</text><rect class="box normal" x="370.0" y="154.0" width="161" height="48" rx="8" ry="8"/><text class="lvl1" x="380.0" y="174.0">Аллергологические</text><text class="lvl1" x="380.0" y="190.0">исследования</text><rect class="box normal" x="689.0" y="48.0" width="129" height="28" rx="8" ry="8"/><text class="lvlx" x="699.0" y="66.0">Аллергочип ALEX2</text><rect class="box normal" x="689.0" y="86.0" width="190" height="28" rx="8" ry="8"/><text class="lvlx" x="699.0" y="104.0">Анализ крови на аллергены</text><rect class="box normal" x="689.0" y="124.0" width="135" height="28" rx="8" ry="8"/><text class="lvlx" x="699.0" y="142.0">Бытовые аллергены</text><rect class="box normal" x="689.0" y="162.0" width="149" height="28" rx="8" ry="8"/><text class="lvlx" x="699.0" y="180.0">Кожные аллергопробы</text><rect class="box normal" x="689.0" y="200.0" width="183" height="28" rx="8" ry="8"/><text class="lvlx" x="699.0" y="218.0">Неинфекционные аллергены</text><rect class="box normal" x="689.0" y="231.0" width="122" height="42" rx="8" ry="8"/><text class="lvlx" x="699.0" y="249.0">Тест на пищевую</text><text class="lvlx" x="699.0" y="263.0">непереносимость</text><rect class="box normal" x="689.0" y="290.0" width="217" height="28" rx="8" ry="8"/><text class="lvlx" x="699.0" y="308.0">Эозинофильный катионный белок</text><rect class="box normal" x="370.0" y="644.0" width="209" height="32" rx="8" ry="8"/><text class="lvl1" x="380.0" y="664.0">Анализ крови на гормоны</text><rect class="box normal" x="689.0" y="321.0" width="197" height="42" rx="8" ry="8"/><text class="lvlx" x="699.0" y="339.0">АКТГ (Адренокортикотропный</text><text class="lvlx" x="699.0" y="353.0">гормон)</text><rect class="box normal" x="689.0" y="380.0" width="190" height="28" rx="8" ry="8"/><text class="lvlx" x="699.0" y="398.0">АМГ (Антимюллеров гормон)</text><rect class="box normal" x="689.0" y="418.0" width="67" height="28" rx="8" ry="8"/><text class="lvlx" x="699.0" y="436.0">Инсулин</text><rect class="box normal" x="689.0" y="456.0" width="74" height="28" rx="8" ry="8"/><text class="lvlx" x="699.0" y="474.0">Кортизол</text><rect class="box normal" x="689.0" y="494.0" width="204" height="28" rx="8" ry="8"/><text class="lvlx" x="699.0" y="512.0">ЛГ (Лютеинизирующий гормон)</text><rect class="box normal" x="689.0" y="532.0" width="60" height="28" rx="8" ry="8"/><text class="lvlx" x="699.0" y="550.0">Лептин</text><rect class="box normal" x="689.0" y="570.0" width="95" height="28" rx="8" ry="8"/><text class="lvlx" x="699.0" y="588.0">Паратгормон</text><rect class="box normal" x="689.0" y="608.0" width="95" height="28" rx="8" ry="8"/><text class="lvlx" x="699.0" y="626.0">Прогестерон</text><rect class="box normal" x="689.0" y="646.0" width="74" height="28" rx="8" ry="8"/><text class="lvlx" x="699.0" y="664.0">Пролакти</text><rect class="box normal" x="689.0" y="684.0" width="142" height="28" rx="8" ry="8"/><text class="lvlx" x="699.0" y="702.0">Стероидный профиль</text><rect class="box normal" x="689.0" y="722.0" width="142" height="28" rx="8" ry="8"/><text class="lvlx" x="699.0" y="740.0">Т3 (Трийодтиронин)</text><rect class="box normal" x="689.0" y="760.0" width="108" height="28" rx="8" ry="8"/><text class="lvlx" x="699.0" y="778.0">Т4 (Тироксин)</text><rect class="box normal" x="689.0" y="798.0" width="101" height="28" rx="8" ry="8"/><text class="lvlx" x="699.0" y="816.0">Т4 свободный</text><rect class="box normal" x="689.0" y="836.0" width="95" height="28" rx="8" ry="8"/><text class="lvlx" x="699.0" y="854.0">Тестостерон</text><rect class="box normal" x="689.0" y="874.0" width="190" height="28" rx="8" ry="8"/><text class="lvlx" x="699.0" y="892.0">ТТГ (Тиреотропный гормон)</text><rect class="box normal" x="689.0" y="905.0" width="204" height="42" rx="8" ry="8"/><text class="lvlx" x="699.0" y="923.0">ФСГ (Фолликулостимулирующий</text><text class="lvlx" x="699.0" y="937.0">гормон)</text><rect class="box normal" x="689.0" y="964.0" width="81" height="28" rx="8" ry="8"/><text class="lvlx" x="699.0" y="982.0">Эстрадиол</text><rect class="box normal" x="370.0" y="1355.7" width="177" height="32" rx="8" ry="8"/><text class="lvl1" x="380.0" y="1375.7">Анализы на инфекции</text><rect class="box normal" x="689.0" y="1002.0" width="81" height="28" rx="8" ry="8"/><text class="lvlx" x="699.0" y="1020.0">Андрофлор</text><rect class="box normal" x="689.0" y="1040.0" width="108" height="28" rx="8" ry="8"/><text class="lvlx" x="699.0" y="1058.0">Анализ на ВИЧ</text><rect class="box normal" x="689.0" y="1078.0" width="122" height="28" rx="8" ry="8"/><text class="lvlx" x="699.0" y="1096.0">Андрофлор скрин</text><rect class="box normal" x="689.0" y="1109.0" width="183" height="42" rx="8" ry="8"/><text class="lvlx" x="699.0" y="1127.0">Бакпосев на микрофлору с</text><text class="lvlx" x="699.0" y="1141.0">антибиотикограммой</text><rect class="box normal" x="689.0" y="1168.0" width="163" height="28" rx="8" ry="8"/><text class="lvlx" x="699.0" y="1186.0">Диагностика гепатитов</text><rect class="box normal" x="689.0" y="1199.0" width="183" height="42" rx="8" ry="8"/><text class="lvlx" x="699.0" y="1217.0">Диагностика паразитарных</text><text class="lvlx" x="699.0" y="1231.0">инфекций</text><rect class="box normal" x="689.0" y="1258.0" width="210" height="28" rx="8" ry="8"/><text class="lvlx" x="699.0" y="1276.0">Комплексные ПЦР исследования</text><rect class="box normal" x="689.0" y="1289.0" width="142" height="42" rx="8" ry="8"/><text class="lvlx" x="699.0" y="1307.0">Микробиологические</text><text class="lvlx" x="699.0" y="1321.0">исследования</text><rect class="box normal" x="689.0" y="1348.0" width="88" height="28" rx="8" ry="8"/><text class="lvlx" x="699.0" y="1366.0">ПЦР на ВПЧ</text><rect class="box normal" x="689.0" y="1386.0" width="122" height="28" rx="8" ry="8"/><text class="lvlx" x="699.0" y="1404.0">ПЦР-диагностика</text><rect class="box normal" x="689.0" y="1424.0" width="74" height="28" rx="8" ry="8"/><text class="lvlx" x="699.0" y="1442.0">Фемофлор</text><rect class="box normal" x="689.0" y="1462.0" width="95" height="28" rx="8" ry="8"/><text class="lvlx" x="699.0" y="1480.0">Фемофлор 16</text><rect class="box normal" x="689.0" y="1500.0" width="88" height="28" rx="8" ry="8"/><text class="lvlx" x="699.0" y="1518.0">Флороценоз</text><rect class="box normal" x="689.0" y="1531.0" width="183" height="42" rx="8" ry="8"/><text class="lvlx" x="699.0" y="1549.0">Флороценоз бактериальный</text><text class="lvlx" x="699.0" y="1563.0">вагиноз</text><rect class="box normal" x="689.0" y="1590.0" width="149" height="28" rx="8" ry="8"/><text class="lvlx" x="699.0" y="1608.0">Флороценоз комплекс</text><rect class="box normal" x="689.0" y="1621.0" width="210" height="42" rx="8" ry="8"/><text class="lvlx" x="699.0" y="1639.0">ХМС по Осипову</text><text class="lvlx" x="699.0" y="1653.0">(Хромато-масс-спектрометрия)</text><rect class="box normal" x="689.0" y="1680.0" width="115" height="28" rx="8" ry="8"/><text class="lvlx" x="699.0" y="1698.0">TORCH-комплекс</text><rect class="box normal" x="689.0" y="1718.0" width="204" height="28" rx="8" ry="8"/><text class="lvlx" x="699.0" y="1736.0">TORCH-комплекс с авидностью</text><rect class="box normal" x="370.0" y="1792.0" width="136" height="32" rx="8" ry="8"/><text class="lvl1" x="380.0" y="1812.0">Анализы на кал</text><rect class="box normal" x="689.0" y="1756.0" width="224" height="28" rx="8" ry="8"/><text class="lvlx" x="699.0" y="1774.0">Анализ кала на яйца гельминтов</text><rect class="box normal" x="689.0" y="1794.0" width="156" height="28" rx="8" ry="8"/><text class="lvlx" x="699.0" y="1812.0">Кал на скрытую кровь</text><rect class="box normal" x="689.0" y="1832.0" width="95" height="28" rx="8" ry="8"/><text class="lvlx" x="699.0" y="1850.0">Копрограмма</text><rect class="box normal" x="370.0" y="1996.0" width="185" height="32" rx="8" ry="8"/><text class="lvl1" x="380.0" y="2016.0">Анализы на цитологию</text><rect class="box normal" x="689.0" y="1863.0" width="197" height="42" rx="8" ry="8"/><text class="lvlx" x="699.0" y="1881.0">Жидкостная цитология шейки</text><text class="lvlx" x="699.0" y="1895.0">матки</text><rect class="box normal" x="689.0" y="1922.0" width="129" height="28" rx="8" ry="8"/><text class="lvlx" x="699.0" y="1940.0">Цитология мазков</text><rect class="box normal" x="689.0" y="1960.0" width="135" height="28" rx="8" ry="8"/><text class="lvlx" x="699.0" y="1978.0">Цитология мокроты</text><rect class="box normal" x="689.0" y="1998.0" width="190" height="28" rx="8" ry="8"/><text class="lvlx" x="699.0" y="2016.0">Цитология молочной железы</text><rect class="box normal" x="689.0" y="2036.0" width="115" height="28" rx="8" ry="8"/><text class="lvlx" x="699.0" y="2054.0">Цитология мочи</text><rect class="box normal" x="689.0" y="2067.0" width="190" height="42" rx="8" ry="8"/><text class="lvlx" x="699.0" y="2085.0">Цитология соскоба с шейки</text><text class="lvlx" x="699.0" y="2099.0">матки</text><rect class="box normal" x="689.0" y="2126.0" width="204" height="28" rx="8" ry="8"/><text class="lvlx" x="699.0" y="2144.0">Цитология щитовидной железы</text><rect class="box normal" x="370.0" y="2188.0" width="217" height="32" rx="8" ry="8"/><text class="lvl1" x="380.0" y="2208.0">Аутоиммунные заболевания</text><rect class="box normal" x="689.0" y="2157.0" width="197" height="42" rx="8" ry="8"/><text class="lvlx" x="699.0" y="2175.0">Маркеры антифосфолипидного</text><text class="lvlx" x="699.0" y="2189.0">синдрома (АФС)</text><rect class="box normal" x="689.0" y="2209.0" width="190" height="42" rx="8" ry="8"/><text class="lvlx" x="699.0" y="2227.0">Маркеры демиелинизирующих</text><text class="lvlx" x="699.0" y="2241.0">заболеваний</text><rect class="box normal" x="370.0" y="3047.6" width="233" height="32" rx="8" ry="8"/><text class="lvl1" x="380.0" y="3067.6">Биохимический анализ крови</text><rect class="box normal" x="689.0" y="2268.0" width="210" height="28" rx="8" ry="8"/><text class="lvlx" x="699.0" y="2286.0">АЛТ (Аланинаминотрансфераза)</text><rect class="box normal" x="689.0" y="2306.0" width="74" height="28" rx="8" ry="8"/><text class="lvlx" x="699.0" y="2324.0">Альбумин</text><rect class="box normal" x="689.0" y="2344.0" width="108" height="28" rx="8" ry="8"/><text class="lvlx" x="699.0" y="2362.0">Альфа-амилаза</text><rect class="box normal" x="689.0" y="2382.0" width="217" height="28" rx="8" ry="8"/><text class="lvlx" x="699.0" y="2400.0">Альфа-амилаза панкреатическая</text><rect class="box normal" x="689.0" y="2420.0" width="190" height="28" rx="8" ry="8"/><text class="lvlx" x="699.0" y="2438.0">Анализ на глюкозу (сахар)</text><rect class="box normal" x="689.0" y="2458.0" width="224" height="28" rx="8" ry="8"/><text class="lvlx" x="699.0" y="2476.0">АСТ (Аспартатаминотрансфераза)</text><rect class="box normal" x="689.0" y="2496.0" width="156" height="28" rx="8" ry="8"/><text class="lvlx" x="699.0" y="2514.0">Бета-2-микроглобулин</text><rect class="box normal" x="689.0" y="2534.0" width="122" height="28" rx="8" ry="8"/><text class="lvlx" x="699.0" y="2552.0">Билирубин общий</text><rect class="box normal" x="689.0" y="2572.0" width="217" height="28" rx="8" ry="8"/><text class="lvlx" x="699.0" y="2590.0">Витамин В9 (Фолиевая кислота)</text><rect class="box normal" x="689.0" y="2610.0" width="81" height="28" rx="8" ry="8"/><text class="lvlx" x="699.0" y="2628.0">Витамин D</text><rect class="box normal" x="689.0" y="2641.0" width="224" height="42" rx="8" ry="8"/><text class="lvlx" x="699.0" y="2659.0">ГГТ</text><text class="lvlx" x="699.0" y="2673.0">(Гамма-глутамилтранспептидаза)</text><rect class="box normal" x="689.0" y="2700.0" width="183" height="28" rx="8" ry="8"/><text class="lvlx" x="699.0" y="2718.0">Гликированный гемоглобин</text><rect class="box normal" x="689.0" y="2738.0" width="95" height="28" rx="8" ry="8"/><text class="lvlx" x="699.0" y="2756.0">Гомоцистеин</text><rect class="box normal" x="689.0" y="2776.0" width="149" height="28" rx="8" ry="8"/><text class="lvlx" x="699.0" y="2794.0">Железо сывороточное</text><rect class="box normal" x="689.0" y="2807.0" width="217" height="42" rx="8" ry="8"/><text class="lvlx" x="699.0" y="2825.0">Индекс инсулинорезистентности</text><text class="lvlx" x="699.0" y="2839.0">(HOMA)</text><rect class="box normal" x="689.0" y="2866.0" width="67" height="28" rx="8" ry="8"/><text class="lvlx" x="699.0" y="2884.0">Кальций</text><rect class="box normal" x="689.0" y="2904.0" width="170" height="28" rx="8" ry="8"/><text class="lvlx" x="699.0" y="2922.0">Кальций ионизированный</text><rect class="box normal" x="689.0" y="2942.0" width="190" height="28" rx="8" ry="8"/><text class="lvlx" x="699.0" y="2960.0">Коэффициент атерогенности</text><rect class="box normal" x="689.0" y="2980.0" width="81" height="28" rx="8" ry="8"/><text class="lvlx" x="699.0" y="2998.0">Креатинин</text><rect class="box normal" x="689.0" y="3018.0" width="108" height="28" rx="8" ry="8"/><text class="lvlx" x="699.0" y="3036.0">Креатинкиназа</text><rect class="box normal" x="689.0" y="3056.0" width="190" height="28" rx="8" ry="8"/><text class="lvlx" x="699.0" y="3074.0">ЛДГ (Лактатдегидрогеназа)</text><rect class="box normal" x="689.0" y="3094.0" width="60" height="28" rx="8" ry="8"/><text class="lvlx" x="699.0" y="3112.0">Липаза</text><rect class="box normal" x="689.0" y="3125.0" width="129" height="42" rx="8" ry="8"/><text class="lvlx" x="699.0" y="3143.0">Липидный профиль</text><text class="lvlx" x="699.0" y="3157.0">(Липидограмма)</text><rect class="box normal" x="689.0" y="3177.0" width="224" height="42" rx="8" ry="8"/><text class="lvlx" x="699.0" y="3195.0">Липопротеины высокой плотности</text><text class="lvlx" x="699.0" y="3209.0">(ЛПВП)</text><rect class="box normal" x="689.0" y="3229.0" width="217" height="42" rx="8" ry="8"/><text class="lvlx" x="699.0" y="3247.0">Липопротеины низкой плотности</text><text class="lvlx" x="699.0" y="3261.0">(ЛПНП)</text><rect class="box normal" x="689.0" y="3281.0" width="190" height="42" rx="8" ry="8"/><text class="lvlx" x="699.0" y="3299.0">Липопротеины очень низкой</text><text class="lvlx" x="699.0" y="3313.0">плотности (ЛПОНП)</text><rect class="box normal" x="689.0" y="3340.0" width="60" height="28" rx="8" ry="8"/><text class="lvlx" x="699.0" y="3358.0">Магний</text><rect class="box normal" x="689.0" y="3378.0" width="149" height="28" rx="8" ry="8"/><text class="lvlx" x="699.0" y="3396.0">Маркеры остеопороза</text><rect class="box normal" x="689.0" y="3416.0" width="122" height="28" rx="8" ry="8"/><text class="lvlx" x="699.0" y="3434.0">Мочевая кислота</text><rect class="box normal" x="689.0" y="3454.0" width="74" height="28" rx="8" ry="8"/><text class="lvlx" x="699.0" y="3472.0">Мочевина</text><rect class="box normal" x="689.0" y="3492.0" width="60" height="28" rx="8" ry="8"/><text class="lvlx" x="699.0" y="3510.0">Натрий</text><rect class="box normal" x="689.0" y="3530.0" width="95" height="28" rx="8" ry="8"/><text class="lvlx" x="699.0" y="3548.0">Общий белок</text><rect class="box normal" x="689.0" y="3568.0" width="183" height="28" rx="8" ry="8"/><text class="lvlx" x="699.0" y="3586.0">С-реактивный белок (СРБ)</text><rect class="box normal" x="689.0" y="3606.0" width="95" height="28" rx="8" ry="8"/><text class="lvlx" x="699.0" y="3624.0">СтеатоСкрин</text><rect class="box normal" x="689.0" y="3644.0" width="101" height="28" rx="8" ry="8"/><text class="lvlx" x="699.0" y="3662.0">Триглицериды</text><rect class="box normal" x="689.0" y="3682.0" width="74" height="28" rx="8" ry="8"/><text class="lvlx" x="699.0" y="3700.0">Ферритин</text><rect class="box normal" x="689.0" y="3720.0" width="163" height="28" rx="8" ry="8"/><text class="lvlx" x="699.0" y="3738.0">ФиброТест (FibroTest)</text><rect class="box normal" x="689.0" y="3758.0" width="60" height="28" rx="8" ry="8"/><text class="lvlx" x="699.0" y="3776.0">Фосфор</text><rect class="box normal" x="689.0" y="3796.0" width="88" height="28" rx="8" ry="8"/><text class="lvlx" x="699.0" y="3814.0">Холестерин</text><rect class="box normal" x="689.0" y="3834.0" width="142" height="28" rx="8" ry="8"/><text class="lvlx" x="699.0" y="3852.0">Щелочная фосфатаза</text><rect class="box normal" x="370.0" y="3870.0" width="217" height="32" rx="8" ry="8"/><text class="lvl1" x="380.0" y="3890.0">Общий анализ крови (ОАК)</text><rect class="box normal" x="370.0" y="3942.0" width="152" height="48" rx="8" ry="8"/><text class="lvl1" x="380.0" y="3962.0">Гематологические</text><text class="lvl1" x="380.0" y="3978.0">исследования</text><rect class="box normal" x="689.0" y="3914.0" width="183" height="28" rx="8" ry="8"/><text class="lvlx" x="699.0" y="3932.0">Гематологический профиль</text><rect class="box normal" x="689.0" y="3952.0" width="67" height="28" rx="8" ry="8"/><text class="lvlx" x="699.0" y="3970.0">Д-димер</text><rect class="box normal" x="689.0" y="3983.0" width="142" height="42" rx="8" ry="8"/><text class="lvlx" x="699.0" y="4001.0">Коагулограмма</text><text class="lvlx" x="699.0" y="4015.0">(Гемостазиограмма)</text><rect class="box normal" x="370.0" y="4040.0" width="177" height="32" rx="8" ry="8"/><text class="lvl1" x="380.0" y="4060.0">Генетический анализ</text><rect class="box normal" x="689.0" y="4042.0" width="190" height="28" rx="8" ry="8"/><text class="lvlx" x="699.0" y="4060.0">Генетический анализ крови</text><rect class="box normal" x="370.0" y="4120.7" width="249" height="32" rx="8" ry="8"/><text class="lvl1" x="380.0" y="4140.7">Гистологические исследования</text><rect class="box normal" x="689.0" y="4080.0" width="163" height="28" rx="8" ry="8"/><text class="lvlx" x="699.0" y="4098.0">Анализ костного мозга</text><rect class="box normal" x="689.0" y="4111.0" width="197" height="42" rx="8" ry="8"/><text class="lvlx" x="699.0" y="4129.0">Гистология новообразований</text><text class="lvlx" x="699.0" y="4143.0">кожи</text><rect class="box normal" x="689.0" y="4163.0" width="204" height="42" rx="8" ry="8"/><text class="lvlx" x="699.0" y="4181.0">Гистология эндоскопического</text><text class="lvlx" x="699.0" y="4195.0">материала</text><rect class="box normal" x="370.0" y="4334.0" width="169" height="48" rx="8" ry="8"/><text class="lvl1" x="380.0" y="4354.0">Иммунологические</text><text class="lvl1" x="380.0" y="4370.0">исследования крови</text><rect class="box normal" x="689.0" y="4222.0" width="190" height="28" rx="8" ry="8"/><text class="lvlx" x="699.0" y="4240.0">Антитела к рецепторам ТТГ</text><rect class="box normal" x="689.0" y="4260.0" width="190" height="28" rx="8" ry="8"/><text class="lvlx" x="699.0" y="4278.0">АСЛО (Антистрептолизин-О)</text><rect class="box normal" x="689.0" y="4291.0" width="183" height="42" rx="8" ry="8"/><text class="lvlx" x="699.0" y="4309.0">Иммунная карта (Иммунный</text><text class="lvlx" x="699.0" y="4323.0">статус)</text><rect class="box normal" x="689.0" y="4350.0" width="122" height="28" rx="8" ry="8"/><text class="lvlx" x="699.0" y="4368.0">Иммунный статус</text><rect class="box normal" x="689.0" y="4388.0" width="122" height="28" rx="8" ry="8"/><text class="lvlx" x="699.0" y="4406.0">Иммуноглобулины</text><rect class="box normal" x="689.0" y="4426.0" width="163" height="28" rx="8" ry="8"/><text class="lvlx" x="699.0" y="4444.0">Иммунофенотипирование</text><rect class="box normal" x="689.0" y="4464.0" width="149" height="28" rx="8" ry="8"/><text class="lvlx" x="699.0" y="4482.0">Ревматоидный фактор</text><rect class="box normal" x="370.0" y="4779.1" width="161" height="32" rx="8" ry="8"/><text class="lvl1" x="380.0" y="4799.1">Исследования мочи</text><rect class="box normal" x="689.0" y="4495.0" width="149" height="42" rx="8" ry="8"/><text class="lvlx" x="699.0" y="4513.0">Альбумин в моче</text><text class="lvlx" x="699.0" y="4527.0">(Микроальбуминурия)</text><rect class="box normal" x="689.0" y="4554.0" width="156" height="28" rx="8" ry="8"/><text class="lvlx" x="699.0" y="4572.0">Альфа-амилаза в моче</text><rect class="box normal" x="689.0" y="4592.0" width="204" height="28" rx="8" ry="8"/><text class="lvlx" x="699.0" y="4610.0">Бета-2-микроглобулин в моче</text><rect class="box normal" x="689.0" y="4630.0" width="129" height="28" rx="8" ry="8"/><text class="lvlx" x="699.0" y="4648.0">Билирубин в моче</text><rect class="box normal" x="689.0" y="4668.0" width="190" height="28" rx="8" ry="8"/><text class="lvlx" x="699.0" y="4686.0">Биохимический анализ мочи</text><rect class="box normal" x="689.0" y="4706.0" width="115" height="28" rx="8" ry="8"/><text class="lvlx" x="699.0" y="4724.0">Кальций в моче</text><rect class="box normal" x="689.0" y="4744.0" width="129" height="28" rx="8" ry="8"/><text class="lvlx" x="699.0" y="4762.0">Креатинин в моче</text><rect class="box normal" x="689.0" y="4782.0" width="108" height="28" rx="8" ry="8"/><text class="lvlx" x="699.0" y="4800.0">Магний в моче</text><rect class="box normal" x="689.0" y="4820.0" width="170" height="28" rx="8" ry="8"/><text class="lvlx" x="699.0" y="4838.0">Мочевая кислота в моче</text><rect class="box normal" x="689.0" y="4858.0" width="122" height="28" rx="8" ry="8"/><text class="lvlx" x="699.0" y="4876.0">Мочевина в моче</text><rect class="box normal" x="689.0" y="4896.0" width="142" height="28" rx="8" ry="8"/><text class="lvlx" x="699.0" y="4914.0">Общий белок в моче</text><rect class="box normal" x="689.0" y="4934.0" width="122" height="28" rx="8" ry="8"/><text class="lvlx" x="699.0" y="4952.0">Оксалаты в моче</text><rect class="box normal" x="689.0" y="4972.0" width="108" height="28" rx="8" ry="8"/><text class="lvlx" x="699.0" y="4990.0">Проба Реберга</text><rect class="box normal" x="689.0" y="5010.0" width="122" height="28" rx="8" ry="8"/><text class="lvlx" x="699.0" y="5028.0">С-пептид в моче</text><rect class="box normal" x="689.0" y="5048.0" width="108" height="28" rx="8" ry="8"/><text class="lvlx" x="699.0" y="5066.0">Фосфор в моче</text><rect class="box normal" x="370.0" y="5103.0" width="177" height="32" rx="8" ry="8"/><text class="lvl1" x="380.0" y="5123.0">Исследования спермы</text><rect class="box normal" x="689.0" y="5086.0" width="149" height="28" rx="8" ry="8"/><text class="lvlx" x="699.0" y="5104.0">Посткоитальный тест</text><rect class="box normal" x="689.0" y="5124.0" width="101" height="28" rx="8" ry="8"/><text class="lvlx" x="699.0" y="5142.0">Спермограмма</text><rect class="box green" x="370.0" y="5584.1" width="193" height="48" rx="8" ry="8"/><text class="lvl1" x="380.0" y="5604.1">Комплексные программы</text><text class="lvl1" x="380.0" y="5620.1">анализов / Check-UP</text><rect class="box normal" x="689.0" y="5155.0" width="204" height="42" rx="8" ry="8"/><text class="lvlx" x="699.0" y="5173.0">Или можно ЧЕКАП - отнести к</text><text class="lvlx" x="699.0" y="5187.0">разделу: Диагностика</text><rect class="box normal" x="689.0" y="5214.0" width="115" height="28" rx="8" ry="8"/><text class="lvlx" x="699.0" y="5232.0">Гастрокомплекс</text><rect class="box normal" x="689.0" y="5252.0" width="210" height="28" rx="8" ry="8"/><text class="lvlx" x="699.0" y="5270.0">Гормональный профиль женский</text><rect class="box normal" x="689.0" y="5290.0" width="210" height="28" rx="8" ry="8"/><text class="lvlx" x="699.0" y="5308.0">Гормональный профиль мужской</text><rect class="box normal" x="689.0" y="5328.0" width="163" height="28" rx="8" ry="8"/><text class="lvlx" x="699.0" y="5346.0">Госпитальный комплекс</text><rect class="box normal" x="689.0" y="5359.0" width="210" height="42" rx="8" ry="8"/><text class="lvlx" x="699.0" y="5377.0">Госпитальный терапевтический</text><text class="lvlx" x="699.0" y="5391.0">комплекс</text><rect class="box normal" x="689.0" y="5411.0" width="197" height="42" rx="8" ry="8"/><text class="lvlx" x="699.0" y="5429.0">Госпитальный хирургический</text><text class="lvlx" x="699.0" y="5443.0">комплекс</text><rect class="box normal" x="689.0" y="5470.0" width="149" height="28" rx="8" ry="8"/><text class="lvlx" x="699.0" y="5488.0">Диагностика диабета</text><rect class="box normal" x="689.0" y="5508.0" width="210" height="28" rx="8" ry="8"/><text class="lvlx" x="699.0" y="5526.0">Диагностика функции яичников</text><rect class="box normal" x="689.0" y="5546.0" width="183" height="28" rx="8" ry="8"/><text class="lvlx" x="699.0" y="5564.0">Кардиологический профиль</text><rect class="box normal" x="689.0" y="5584.0" width="176" height="28" rx="8" ry="8"/><text class="lvlx" x="699.0" y="5602.0">Нефрологический профиль</text><rect class="box normal" x="689.0" y="5622.0" width="149" height="28" rx="8" ry="8"/><text class="lvlx" x="699.0" y="5640.0">Обследование печени</text><rect class="box normal" x="689.0" y="5660.0" width="101" height="28" rx="8" ry="8"/><text class="lvlx" x="699.0" y="5678.0">Онкоскрининг</text><rect class="box normal" x="689.0" y="5698.0" width="156" height="28" rx="8" ry="8"/><text class="lvlx" x="699.0" y="5716.0">Онкоскрининг женский</text><rect class="box normal" x="689.0" y="5736.0" width="156" height="28" rx="8" ry="8"/><text class="lvlx" x="699.0" y="5754.0">Онкоскрининг мужской</text><rect class="box normal" x="689.0" y="5774.0" width="190" height="28" rx="8" ry="8"/><text class="lvlx" x="699.0" y="5792.0">Планирование беременности</text><rect class="box normal" x="689.0" y="5812.0" width="163" height="28" rx="8" ry="8"/><text class="lvlx" x="699.0" y="5830.0">Постковидный скрининг</text><rect class="box normal" x="689.0" y="5850.0" width="190" height="28" rx="8" ry="8"/><text class="lvlx" x="699.0" y="5868.0">Профиль щитовидной железы</text><rect class="box normal" x="689.0" y="5888.0" width="190" height="28" rx="8" ry="8"/><text class="lvlx" x="699.0" y="5906.0">Ревматологический профиль</text><rect class="box normal" x="689.0" y="5926.0" width="217" height="28" rx="8" ry="8"/><text class="lvlx" x="699.0" y="5944.0">Скрининг рака молочной железы</text><rect class="box normal" x="689.0" y="5964.0" width="142" height="28" rx="8" ry="8"/><text class="lvlx" x="699.0" y="5982.0">Спортивный профиль</text><rect class="box normal" x="689.0" y="6002.0" width="115" height="28" rx="8" ry="8"/><text class="lvlx" x="699.0" y="6020.0">Фитнес профиль</text><rect class="box normal" x="370.0" y="6401.4" width="112" height="32" rx="8" ry="8"/><text class="lvl1" x="380.0" y="6421.4">Онкомаркеры</text><rect class="box normal" x="689.0" y="6040.0" width="176" height="28" rx="8" ry="8"/><text class="lvlx" x="699.0" y="6058.0">АФП (Альфа-фетопротеин)</text><rect class="box normal" x="689.0" y="6078.0" width="88" height="28" rx="8" ry="8"/><text class="lvlx" x="699.0" y="6096.0">Белок S100</text><rect class="box normal" x="689.0" y="6109.0" width="176" height="42" rx="8" ry="8"/><text class="lvlx" x="699.0" y="6127.0">Диагностика нейрогенных</text><text class="lvlx" x="699.0" y="6141.0">опухолей</text><rect class="box normal" x="689.0" y="6168.0" width="224" height="28" rx="8" ry="8"/><text class="lvlx" x="699.0" y="6186.0">Индекс здоровья простаты (PHI)</text><rect class="box normal" x="689.0" y="6206.0" width="95" height="28" rx="8" ry="8"/><text class="lvlx" x="699.0" y="6224.0">Индекс ROMA</text><rect class="box normal" x="689.0" y="6244.0" width="204" height="28" rx="8" ry="8"/><text class="lvlx" x="699.0" y="6262.0">Опухолевая М2-пируваткиназа</text><rect class="box normal" x="689.0" y="6282.0" width="81" height="28" rx="8" ry="8"/><text class="lvlx" x="699.0" y="6300.0">ПСА общий</text><rect class="box normal" x="689.0" y="6313.0" width="190" height="42" rx="8" ry="8"/><text class="lvlx" x="699.0" y="6331.0">РЭА (Раково-эмбриональный</text><text class="lvlx" x="699.0" y="6345.0">антиген)</text><rect class="box normal" x="689.0" y="6372.0" width="108" height="28" rx="8" ry="8"/><text class="lvlx" x="699.0" y="6390.0">Хромогранин А</text><rect class="box normal" x="689.0" y="6410.0" width="60" height="28" rx="8" ry="8"/><text class="lvlx" x="699.0" y="6428.0">CA 125</text><rect class="box normal" x="689.0" y="6448.0" width="67" height="28" rx="8" ry="8"/><text class="lvlx" x="699.0" y="6466.0">CA 15-3</text><rect class="box normal" x="689.0" y="6486.0" width="67" height="28" rx="8" ry="8"/><text class="lvlx" x="699.0" y="6504.0">CA 19-9</text><rect class="box normal" x="689.0" y="6524.0" width="60" height="28" rx="8" ry="8"/><text class="lvlx" x="699.0" y="6542.0">CA 242</text><rect class="box normal" x="689.0" y="6562.0" width="67" height="28" rx="8" ry="8"/><text class="lvlx" x="699.0" y="6580.0">CA 72-4</text><rect class="box normal" x="689.0" y="6600.0" width="88" height="28" rx="8" ry="8"/><text class="lvlx" x="699.0" y="6618.0">Cyfra 21-1</text><rect class="box normal" x="689.0" y="6638.0" width="40" height="28" rx="8" ry="8"/><text class="lvlx" x="699.0" y="6656.0">HE4</text><rect class="box normal" x="689.0" y="6669.0" width="183" height="42" rx="8" ry="8"/><text class="lvlx" x="699.0" y="6687.0">NSE (Нейронспецифическая</text><text class="lvlx" x="699.0" y="6701.0">энолаза)</text><rect class="box normal" x="689.0" y="6728.0" width="40" height="28" rx="8" ry="8"/><text class="lvlx" x="699.0" y="6746.0">SCC</text><rect class="box normal" x="689.0" y="6766.0" width="40" height="28" rx="8" ry="8"/><text class="lvlx" x="699.0" y="6784.0">UBC</text><rect class="box normal" x="370.0" y="6889.0" width="249" height="48" rx="8" ry="8"/><text class="lvl1" x="380.0" y="6909.0">Подготовка к исследованиям /</text><text class="lvl1" x="380.0" y="6925.0">анализам</text><rect class="box normal" x="689.0" y="6804.0" width="176" height="28" rx="8" ry="8"/><text class="lvlx" x="699.0" y="6822.0">Подготовка к сдаче кала</text><rect class="box normal" x="689.0" y="6842.0" width="183" height="28" rx="8" ry="8"/><text class="lvlx" x="699.0" y="6860.0">Подготовка к сдаче крови</text><rect class="box normal" x="689.0" y="6880.0" width="183" height="28" rx="8" ry="8"/><text class="lvlx" x="699.0" y="6898.0">Подготовка к сдаче мазка</text><rect class="box normal" x="689.0" y="6918.0" width="197" height="28" rx="8" ry="8"/><text class="lvlx" x="699.0" y="6936.0">Подготовка к сдаче мокроты</text><rect class="box normal" x="689.0" y="6956.0" width="176" height="28" rx="8" ry="8"/><text class="lvlx" x="699.0" y="6974.0">Подготовка к сдаче мочи</text><rect class="box normal" x="689.0" y="6994.0" width="190" height="28" rx="8" ry="8"/><text class="lvlx" x="699.0" y="7012.0">Подготовка к спермограмме</text><g transform="translate(20,20)"><rect x="0" y="0" width="360" height="58" rx="8" ry="8" fill="#ffffff" stroke="#cbd5e1"/><rect x="12" y="12" width="18" height="18" rx="4" ry="4" fill="#d9ead3" stroke="#5b8a3c"/><text x="40" y="25" class="lvlx">Зеленым отмечены категории с посадочными страницами</text><text x="12" y="44" class="lvlx">Узлов: 189 • Уникальных путей: 188</text></g></svg>